<mxfile host="app.diagrams.net" agent="Mozilla/5.0 (Windows NT 10.0; Win64; x64) AppleWebKit/537.36 (KHTML, like Gecko) Chrome/128.0.0.0 Safari/537.36 OPR/114.0.0.0" version="25.0.1">
  <diagram name="Страница — 1" id="i3X8cp680U3Xau9xNnNO">
    <mxGraphModel dx="1391" dy="753" grid="1" gridSize="10" guides="1" tooltips="1" connect="1" arrows="1" fold="1" page="1" pageScale="1" pageWidth="827" pageHeight="1169" math="0" shadow="0">
      <root>
        <mxCell id="0" />
        <mxCell id="1" parent="0" />
        <mxCell id="SPV3-TDqFG6wdVv40AAE-7" style="edgeStyle=orthogonalEdgeStyle;rounded=0;orthogonalLoop=1;jettySize=auto;html=1;exitX=1;exitY=0.5;exitDx=0;exitDy=0;" edge="1" parent="1" source="SPV3-TDqFG6wdVv40AAE-8">
          <mxGeometry relative="1" as="geometry">
            <mxPoint x="700" y="305" as="targetPoint" />
          </mxGeometry>
        </mxCell>
        <mxCell id="SPV3-TDqFG6wdVv40AAE-1" value="&lt;font&gt;Розроблення реклами&lt;/font&gt;" style="rounded=0;whiteSpace=wrap;html=1;fontSize=15;fontStyle=2;fontFamily=Georgia;fillColor=#d5e8d4;strokeColor=#82b366;strokeWidth=2;" vertex="1" parent="1">
          <mxGeometry x="319" y="270" width="190" height="70" as="geometry" />
        </mxCell>
        <mxCell id="SPV3-TDqFG6wdVv40AAE-2" value="" style="endArrow=classic;html=1;rounded=0;entryX=0.5;entryY=1;entryDx=0;entryDy=0;" edge="1" parent="1" source="SPV3-TDqFG6wdVv40AAE-12" target="SPV3-TDqFG6wdVv40AAE-1">
          <mxGeometry width="50" height="50" relative="1" as="geometry">
            <mxPoint x="414" y="480" as="sourcePoint" />
            <mxPoint x="414" y="420" as="targetPoint" />
          </mxGeometry>
        </mxCell>
        <mxCell id="SPV3-TDqFG6wdVv40AAE-3" value="" style="endArrow=classic;html=1;rounded=0;exitX=1.01;exitY=0.5;exitDx=0;exitDy=0;exitPerimeter=0;" edge="1" parent="1" source="SPV3-TDqFG6wdVv40AAE-4">
          <mxGeometry width="50" height="50" relative="1" as="geometry">
            <mxPoint x="280" y="305" as="sourcePoint" />
            <mxPoint x="319" y="304.5" as="targetPoint" />
          </mxGeometry>
        </mxCell>
        <mxCell id="SPV3-TDqFG6wdVv40AAE-4" value="Замовлення" style="text;html=1;align=center;verticalAlign=middle;resizable=0;points=[];autosize=1;strokeColor=none;fillColor=none;fontSize=14;fontFamily=Georgia;" vertex="1" parent="1">
          <mxGeometry x="180" y="290" width="100" height="30" as="geometry" />
        </mxCell>
        <mxCell id="SPV3-TDqFG6wdVv40AAE-6" value="" style="endArrow=none;html=1;rounded=0;" edge="1" parent="1" target="SPV3-TDqFG6wdVv40AAE-4">
          <mxGeometry width="50" height="50" relative="1" as="geometry">
            <mxPoint x="150" y="305" as="sourcePoint" />
            <mxPoint x="180" y="304.5" as="targetPoint" />
          </mxGeometry>
        </mxCell>
        <mxCell id="SPV3-TDqFG6wdVv40AAE-8" value="Рекламний звіт" style="text;html=1;align=center;verticalAlign=middle;resizable=0;points=[];autosize=1;strokeColor=none;fillColor=none;fontSize=14;fontFamily=Georgia;" vertex="1" parent="1">
          <mxGeometry x="540" y="290" width="130" height="30" as="geometry" />
        </mxCell>
        <mxCell id="SPV3-TDqFG6wdVv40AAE-10" value="" style="endArrow=none;html=1;rounded=0;exitX=1;exitY=0.5;exitDx=0;exitDy=0;" edge="1" parent="1" source="SPV3-TDqFG6wdVv40AAE-1" target="SPV3-TDqFG6wdVv40AAE-8">
          <mxGeometry width="50" height="50" relative="1" as="geometry">
            <mxPoint x="509" y="304.5" as="sourcePoint" />
            <mxPoint x="540" y="305" as="targetPoint" />
          </mxGeometry>
        </mxCell>
        <mxCell id="SPV3-TDqFG6wdVv40AAE-12" value="Команда" style="text;html=1;align=center;verticalAlign=middle;resizable=0;points=[];autosize=1;strokeColor=none;fillColor=none;fontSize=14;fontFamily=Georgia;" vertex="1" parent="1">
          <mxGeometry x="374" y="380" width="80" height="30" as="geometry" />
        </mxCell>
        <mxCell id="SPV3-TDqFG6wdVv40AAE-14" value="" style="endArrow=none;html=1;rounded=0;entryX=0.5;entryY=0.933;entryDx=0;entryDy=0;entryPerimeter=0;" edge="1" parent="1" target="SPV3-TDqFG6wdVv40AAE-12">
          <mxGeometry width="50" height="50" relative="1" as="geometry">
            <mxPoint x="414" y="440" as="sourcePoint" />
            <mxPoint x="415" y="420" as="targetPoint" />
          </mxGeometry>
        </mxCell>
        <mxCell id="SPV3-TDqFG6wdVv40AAE-15" value="" style="endArrow=classic;html=1;rounded=0;entryX=0.5;entryY=0;entryDx=0;entryDy=0;" edge="1" parent="1" source="SPV3-TDqFG6wdVv40AAE-16" target="SPV3-TDqFG6wdVv40AAE-1">
          <mxGeometry width="50" height="50" relative="1" as="geometry">
            <mxPoint x="414" y="110" as="sourcePoint" />
            <mxPoint x="439" y="70" as="targetPoint" />
          </mxGeometry>
        </mxCell>
        <mxCell id="SPV3-TDqFG6wdVv40AAE-16" value="&amp;nbsp;Стратегія, Бюджет,&amp;nbsp;&lt;div&gt;Терміни, Вимоги клієнта&lt;/div&gt;" style="text;html=1;align=center;verticalAlign=middle;resizable=0;points=[];autosize=1;strokeColor=none;fillColor=none;fontSize=14;fontFamily=Georgia;" vertex="1" parent="1">
          <mxGeometry x="319" y="180" width="190" height="50" as="geometry" />
        </mxCell>
        <mxCell id="SPV3-TDqFG6wdVv40AAE-18" value="" style="endArrow=none;html=1;rounded=0;exitX=0.5;exitY=0.04;exitDx=0;exitDy=0;exitPerimeter=0;" edge="1" parent="1" source="SPV3-TDqFG6wdVv40AAE-16">
          <mxGeometry width="50" height="50" relative="1" as="geometry">
            <mxPoint x="414" y="180" as="sourcePoint" />
            <mxPoint x="414" y="150" as="targetPoint" />
          </mxGeometry>
        </mxCell>
        <mxCell id="SPV3-TDqFG6wdVv40AAE-19" value="А0" style="text;html=1;align=center;verticalAlign=middle;resizable=0;points=[];autosize=1;strokeColor=none;fillColor=none;fontSize=14;fontFamily=Georgia;" vertex="1" parent="1">
          <mxGeometry x="478" y="318" width="40" height="30" as="geometry" />
        </mxCell>
      </root>
    </mxGraphModel>
  </diagram>
</mxfile>
